<?xml version="1.0" encoding="utf-8"?>
<!-- Generator: Adobe Illustrator 21.0.2, SVG Export Plug-In . SVG Version: 6.00 Build 0)  -->
<svg version="1.1" id="Layer_1" xmlns="http://www.w3.org/2000/svg" xmlns:xlink="http://www.w3.org/1999/xlink" x="0px" y="0px"
	 viewBox="0 0 500 250" style="enable-background:new 0 0 500 250;" xml:space="preserve">
<style type="text/css">
	.st0{fill:#FA501B;}
	.st1{fill:#FFFFFF;}
</style>
<g>
	<path class="st0" d="M294.5,73.6V24.1L143.9,73.6H6.8v152.8h486.4V73.6H294.5z"/>
</g>
<g>
	<path class="st1" d="M69.5,107.1L40.2,193h22.3l5.2-15.7h30.7l5.2,15.7h22.9l-29.3-85.9H69.5z M74.1,158l8.3-27.5h1.8l8.3,27.5
		H74.1z"/>
	<polygon class="st1" points="142.7,193 207.2,193 207.2,173.9 165.9,173.9 165.9,158.5 202.2,158.5 202.2,140.6 165.9,140.6 
		165.9,126 207.2,126 207.2,107.1 142.7,107.1 	"/>
	<polygon class="st1" points="230,193 294.5,193 294.5,173.9 253.2,173.9 253.2,158.5 289.5,158.5 289.5,140.6 253.2,140.6 
		253.2,126 294.5,126 294.5,107.1 230,107.1 	"/>
	<polygon class="st1" points="311.2,107 311.2,126 333.7,126 333.7,193 355.5,193 355.5,126 377.9,126 377.9,107 	"/>
	<path class="st1" d="M428.9,139.2c-8.9-1.9-16.4-3.2-16.4-8.6c0-3.6,3.5-6.2,10-6.2c5.5,0,14.6,1.8,23.4,6.5l6.7-17.5
		c-9.3-4.7-19.3-7.6-28.9-7.6c-18.1,0-32.7,10.4-32.7,27.4c0,18.5,17.2,23.5,28.7,26.3c11.2,2.6,18.1,3.9,18.1,9.7
		c0,4.7-4.5,6.1-11,6.1c-13.7,0-26.1-6.7-30.3-9.3l-7.8,17.3c7.1,4.5,20.1,10.8,36,10.8c19.7,0,34.6-9.1,34.6-27.2
		C459.3,150,446.7,143.3,428.9,139.2z"/>
</g>
</svg>
