<svg data-name="Layer 1" xmlns="http://www.w3.org/2000/svg" xmlns:xlink="http://www.w3.org/1999/xlink" viewBox="0 0 501.27 363.07"><defs><linearGradient id="a" x1="139.54" y1="59.33" x2="311.17" y2="594.65" gradientUnits="userSpaceOnUse"><stop offset="0" stop-color="#010101" stop-opacity="0"/><stop offset=".95" stop-color="#010101"/></linearGradient><linearGradient id="d" x1="147.58" y1="87.91" x2="138.73" y2="297.68" xlink:href="#a"/><linearGradient id="e" x1="238.59" y1="86.68" x2="229.73" y2="296.44" xlink:href="#a"/><linearGradient id="f" x1="318.78" y1="115.3" x2="309.92" y2="325.07" gradientTransform="rotate(-180 315.705 188.015)" xlink:href="#a"/><linearGradient id="g" x1="148.81" y1="174.84" x2="189.67" y2="386.56" xlink:href="#a"/><linearGradient id="c" x1="240.41" y1="332.03" x2="240.92" y2="308.02" gradientUnits="userSpaceOnUse"><stop offset="0" stop-color="#fff" stop-opacity="0"/><stop offset=".95" stop-color="#fff"/></linearGradient><linearGradient id="h" x1="83" y1="76.59" x2="113.52" y2="76.59" xlink:href="#a"/><linearGradient id="b" x1="86.36" y1="65.69" x2="104.48" y2="65.69" gradientUnits="userSpaceOnUse"><stop offset="0" stop-color="#e5c6d6"/><stop offset=".42" stop-color="#ead4d0"/><stop offset="1" stop-color="#f0e9cb"/></linearGradient><linearGradient id="i" x1="85.45" y1="71.7" x2="103.56" y2="71.7" xlink:href="#b"/><linearGradient id="j" x1="84.31" y1="77.04" x2="102.42" y2="77.04" xlink:href="#b"/><linearGradient id="k" x1="83.08" y1="82.37" x2="101.2" y2="82.37" xlink:href="#b"/><linearGradient id="l" x1="97.46" y1="80.82" x2="134.6" y2="80.82" xlink:href="#b"/><linearGradient id="m" x1="381.81" y1="83.59" x2="420.84" y2="83.59" xlink:href="#a"/><linearGradient id="n" x1="-900.99" y1="61.43" x2="-885.04" y2="61.43" gradientTransform="matrix(-1 0 0 1 -486.08 0)" xlink:href="#b"/><linearGradient id="o" x1="-901.79" y1="66.72" x2="-885.84" y2="66.72" gradientTransform="matrix(-1 0 0 1 -486.08 0)" xlink:href="#b"/><linearGradient id="p" x1="-902.8" y1="71.43" x2="-886.85" y2="71.43" gradientTransform="matrix(-1 0 0 1 -486.08 0)" xlink:href="#b"/><linearGradient id="q" x1="-903.87" y1="76.12" x2="-887.93" y2="76.12" gradientTransform="matrix(-1 0 0 1 -486.08 0)" xlink:href="#b"/><linearGradient id="r" x1="-891.21" y1="74.76" x2="-858.51" y2="74.76" gradientTransform="matrix(-1 0 0 1 -486.08 0)" xlink:href="#b"/><linearGradient id="s" x1="147.79" y1="246.64" x2="241.43" y2="246.64" xlink:href="#a"/><linearGradient id="t" x1="162.34" y1="149.13" x2="117.39" y2="282.27" xlink:href="#c"/><linearGradient id="u" x1="178.61" y1="70.71" x2="279.06" y2="343.47" xlink:href="#a"/><linearGradient id="v" x1="492.29" y1="80.27" x2="334.27" y2="167.36" xlink:href="#a"/><linearGradient id="w" x1="240.81" y1="172.66" x2="267.15" y2="172.66" xlink:href="#b"/><linearGradient id="x" x1="246.96" y1="190.27" x2="258.97" y2="143.79" xlink:href="#a"/><linearGradient id="y" x1="226.51" y1="138.01" x2="278.03" y2="138.01" xlink:href="#b"/><linearGradient id="z" x1="59.08" y1="221.04" x2="75.66" y2="221.04" xlink:href="#a"/><linearGradient id="A" x1="203.65" y1="197.07" x2="-55.84" y2="289.01" xlink:href="#a"/></defs><path d="M135.85 352.89a766.15 766.15 0 00287.24-7.29c12.1-2.64 24.46-5.71 34.64-12.77 8.76-6.07 15.39-14.75 21.09-23.75 21.34-33.72 31.16-78.24 12.61-113.57-19.71-37.53-63.95-53.69-96.48-80.88-25-20.86-43.13-48.49-62.78-74.43-8.06-10.66-16.79-21.38-28.66-27.53-9.77-5-20.91-6.6-31.81-8.08-44.85-6.09-95.42-10.71-130.77 17.63-44.7 35.86-44.87 109.22-90.74 143.58-8.8 6.59-18.91 11.38-27.2 18.6-29.9 26.02-29.14 83.22-6.36 113.62 26.5 35.36 78.33 48.1 119.22 54.87z" fill="#6246ea" opacity=".24" style="isolation:isolate"/><path fill="#6246ea" d="M343.75 82.5l-10.85.83-1.01-13.24-112.77 129.13-61.72-50.9L10.49 282.38l-7.33-8.01 153.88-140.46 60.81 50.18L322.78 63.92l-14.69 4.06-2.87-10.48 35.89-9.91 2.64 34.91z"/><path fill="url(#a)" d="M343.75 82.5l-10.85.83-1.01-13.24-112.77 129.13-61.72-50.9L10.49 282.38l-7.33-8.01 153.88-140.46 60.81 50.18L322.78 63.92l-14.69 4.06-2.87-10.48 35.89-9.91 2.64 34.91z"/><path d="M53.58 242.82c8.63 5.65 14.35 14.78 22.28 21.38l-7 19-4.59-5c-3.93-4.24-7.91-8.52-12.68-11.8s-10.47-5.45-16.24-5.07c0 0 2.92-17.63 4.37-19.37 4.25-5.11 8.42-2.7 13.86.86z" fill="#6246ea"/><path d="M42.31 243.55l-1.46 10.79a4.75 4.75 0 013.7 4.22s14.5 4.79 19.86 15.07c0 0 3.64-1 5 .64l2.87-7s-1.91-2.42-1.4-4.4c0 0-13.86-18.48-22.54-20.05a10.87 10.87 0 01-6.03.73z" fill="#fff"/><path fill="#6246ea" d="M135.03 56.77h17.53v241.35h-17.53zM225.18 27.8h20.37v270.32h-20.37zM318.06 298.13h-18.99V27.81h18.99z"/><path fill="url(#d)" d="M135.03 56.77h17.53v241.35h-17.53z"/><path fill="url(#e)" d="M225.18 27.8h20.37v270.32h-20.37z"/><path transform="rotate(180 312.135 175.49)" fill="url(#f)" d="M306.21 52.85h18.99v270.32h-18.99z"/><path d="M113.43 148.79h255.33a14.39 14.39 0 0114.39 14.39V318H99V163.18a14.39 14.39 0 0114.43-14.39z" fill="#6246ea"/><path fill="#fff" d="M115.13 161.05h252.71v143.97H115.13z"/><path d="M133.49 221.19l1 3.4s38.82-.51 42.22-2a8.14 8.14 0 004.26-5.11l-1.36-8.68-8.69-15.5z" transform="translate(-7.15 -25.05)" opacity=".26" fill="url(#g)"/><path fill="#fff" d="M115.12 305.01V161.05"/><path d="M81.43 317.27H400v1a22 22 0 01-22 22H103.42a22 22 0 01-22-22v-1h.01z" fill="#6246ea"/><path d="M81.43 317.27H400v1a22 22 0 01-22 22H103.42a22 22 0 01-22-22v-1h.01z" fill="url(#c)"/><path d="M115.78 37.69c.9-1.61 2-3.18 2.3-5s-.55-4-2.34-4.46-4 1.16-5.82.37c-1.16-.5-1.7-1.81-2.3-2.92a11.2 11.2 0 00-6.38-5.49 8.35 8.35 0 00-8.06 1.7 14.37 14.37 0 01-1.85 1.73 5 5 0 01-5.12-.35c-1.24-.74-2.7-1.85-4-1.13a2.51 2.51 0 00-1.07 1.74c-.61 3.16 1.71 6.07 2.71 9.17 1.29 3.93.46 8.21-.38 12.26-1.22 5.72-2.52 11.64-6.21 16.21s-9.35 7.07-13.16 11.5-5.43 10.33-6.6 16.07a9.31 9.31 0 000 5.23 9.5 9.5 0 002.26 3c3.74 3.83 7.66 7.76 12.67 9.65 5.41 2 11.39 1.44 17.17 1.33 4-.08 8.05.09 12-.59s7.9-2.3 10.49-5.35a16.89 16.89 0 003.57-10 56.31 56.31 0 00-.81-10.75q-1.55-11.55-2.19-23.18c-.41-7.17-.51-14.24 3.12-20.74z" fill="#6246ea"/><path d="M83.71 93.14c-.57 1.17-1.11 2.67-.27 3.67l9.32-6.64a1 1 0 01.69-.26c.3 0 .48.35.62.62l2.34 4.64 4.43-6.31L110 98c.84.84 2.18 1.71 3.07.92.74-.65.39-1.86 0-2.76-2.73-5.92-3.66-13.54-5.11-19.89-.57-2.49-.86-5-1.44-7.51-1.47-6.36-7.19-10.4-12-14.86.89 3 1.68 6.06 2.37 9.12L94.54 62a44.41 44.41 0 00-5.88 17.43C88 84.55 86 88.47 83.71 93.14z" transform="translate(-7.15 -25.05)" opacity=".26" fill="url(#h)"/><path d="M96 62.85a32.81 32.81 0 015 1.83 6.63 6.63 0 013.45 3.83 1.92 1.92 0 01-.34 1.93 2.34 2.34 0 01-2 .26 69.82 69.82 0 01-11.64-3.09 8.76 8.76 0 01-2.8-1.44 3.2 3.2 0 01-1.22-2.78c.73-5.48 6.9-1.39 9.55-.54z" transform="translate(-7.15 -25.05)" fill="url(#b)"/><path d="M95 68.86a34.35 34.35 0 015 1.83 6.61 6.61 0 013.44 3.83 1.91 1.91 0 01-.33 1.94 2.36 2.36 0 01-2 .26 71 71 0 01-11.61-3.09 8.81 8.81 0 01-2.81-1.44 3.24 3.24 0 01-1.22-2.79c.79-5.47 6.97-1.4 9.53-.54z" transform="translate(-7.15 -25.05)" fill="url(#i)"/><path d="M93.9 74.21a34.31 34.31 0 015 1.82 6.62 6.62 0 013.44 3.84 1.9 1.9 0 01-.34 1.93 2.36 2.36 0 01-2 .26A70 70 0 0188.36 79a8.81 8.81 0 01-2.81-1.44 3.24 3.24 0 01-1.22-2.79c.79-5.5 6.97-1.44 9.57-.56z" transform="translate(-7.15 -25.05)" fill="url(#j)"/><path d="M92.67 79.53a32.81 32.81 0 015 1.83 6.66 6.66 0 013.45 3.83 1.92 1.92 0 01-.34 1.93 2.3 2.3 0 01-2 .27 70.8 70.8 0 01-11.65-3.09 8.76 8.76 0 01-2.8-1.44 3.21 3.21 0 01-1.22-2.79c.79-5.47 6.96-1.42 9.56-.54z" transform="translate(-7.15 -25.05)" fill="url(#k)"/><path d="M125.86 71.6C120.64 63.76 111 60 101.65 58.84c-1.58-.2-3.65 0-4.11 1.49a2.57 2.57 0 00.24 1.82c1.59 3.35 6.55 4 8.13 7.35a9.93 9.93 0 01.68 3.43c.85 10 3.8 20.44 11.26 27.16a10.33 10.33 0 004.25 2.55 12.41 12.41 0 004.17.12c2-.18 4-.36 6-.67s2.63-.49 2.25-2.51c-.61-3.16-2-6.28-2.67-9.48-1.35-6.33-2.33-13-5.99-18.5z" transform="translate(-7.15 -25.05)" fill="url(#l)"/><path d="M130.38 74.28a1.3 1.3 0 01.06.75 1.28 1.28 0 01-.57.58l-12 7.8a3.18 3.18 0 01-1.63.66 2.87 2.87 0 01-1.53-.63 13.49 13.49 0 01-5.13-7.26 1 1 0 010-.85 1.15 1.15 0 01.68-.42c4.71-1.61 8.61-5.3 13-7.58 5.27-2.73 5.81 2.52 7.12 6.95z" fill="#fff"/><path d="M375.55 33.78a14.14 14.14 0 01-2-4.4c-.26-1.61.48-3.54 2.05-3.94s3.53 1 5.13.33c1-.44 1.5-1.59 2-2.57a9.87 9.87 0 015.62-4.83 7.37 7.37 0 017.1 1.49 11.63 11.63 0 001.62 1.52 4.4 4.4 0 004.51-.3c1.09-.66 2.38-1.63 3.48-1a2.23 2.23 0 01.94 1.52c.58 2.79-1.43 5.38-2.32 8.09-1.13 3.46-.4 7.23.34 10.79 1.05 5 2.19 10.29 5.44 14.28s8.24 6.23 11.59 10.12 4.8 9.07 5.8 14.16a8.22 8.22 0 010 4.61 8.48 8.48 0 01-2 2.67c-3.3 3.36-6.74 6.83-11.15 8.49-4.77 1.8-10 1.27-15.13 1.17a71.5 71.5 0 01-10.56-.51c-3.48-.6-6.95-2-9.24-4.72a14.81 14.81 0 01-3.14-8.8 49.47 49.47 0 01.71-9.47c.91-6.77 1.55-13.59 1.93-20.41.39-6.34.48-12.56-2.72-18.29z" fill="#6246ea"/><path d="M386.77 54.57c1-.45 1.94.58 2.78 1.27a5.21 5.21 0 008.52-3.59 4.27 4.27 0 012.61 2.22c.22.47.42 1 .92 1.17a1.27 1.27 0 00.83-.11 9.21 9.21 0 003.49-3.17l1.82-2.36c1.44 1.46.95 3.86.55 5.88a31.26 31.26 0 001 15.85 12.49 12.49 0 001.77 3.63 22.3 22.3 0 003.79 3.46 26 26 0 015.99 7.18l-10.49-5c-1.2-.57-2.77-1.1-3.73-.18a3.53 3.53 0 00-.77 2A24.21 24.21 0 01403 90.6l-1.26-7.81a2.91 2.91 0 00-.91-2c-1.22-.89-2.84.5-3.49 1.88-1.5 3.19-1.52 6.91-2.86 10.17-.88 2.13-2.3 4-3.24 6.11a14.91 14.91 0 00.68 13.18c.55 1 1.24 2 1.05 3.1a2.74 2.74 0 01-3 2 5.83 5.83 0 01-3.36-1.87c-3.33-3.32-4.79-8.18-4.76-12.88a48.72 48.72 0 011.74-11 63.85 63.85 0 013.2-10.69c1.82-4.2 4.61-8.23 4.59-12.81 0-3-1.43-5.3-2.83-7.79-.68-1.19-3.94-4.63-1.78-5.62z" transform="translate(-7.15 -25.05)" opacity=".26" fill="url(#m)"/><path d="M406.46 58.93a29 29 0 00-4.38 1.61 5.83 5.83 0 00-3 3.37 1.68 1.68 0 00.29 1.7 2 2 0 001.75.23 61.44 61.44 0 0010.25-2.72 7.63 7.63 0 002.47-1.27 2.85 2.85 0 001.07-2.45c-.72-4.82-6.16-1.25-8.45-.47z" transform="translate(-7.15 -25.05)" fill="url(#n)"/><path d="M407.26 64.23a28.92 28.92 0 00-4.37 1.61 5.79 5.79 0 00-3 3.37 1.68 1.68 0 00.3 1.7 2 2 0 001.75.23 61.58 61.58 0 0010.24-2.72 7.53 7.53 0 002.47-1.27 2.81 2.81 0 001.07-2.45c-.72-4.82-6.17-1.25-8.46-.47z" transform="translate(-7.15 -25.05)" fill="url(#o)"/><path d="M408.27 68.93a29 29 0 00-4.38 1.61 5.83 5.83 0 00-3 3.37 1.7 1.7 0 00.29 1.71 2.11 2.11 0 001.75.23 62.6 62.6 0 0010.24-2.73 7.6 7.6 0 002.47-1.26 2.85 2.85 0 001.08-2.46c-.72-4.81-6.16-1.25-8.45-.47z" transform="translate(-7.15 -25.05)" fill="url(#p)"/><path d="M409.34 73.62a29.32 29.32 0 00-4.34 1.61 5.83 5.83 0 00-3 3.37 1.7 1.7 0 00.29 1.71 2.11 2.11 0 001.75.23 62.6 62.6 0 0010.24-2.73 7.6 7.6 0 002.47-1.26 2.85 2.85 0 001.08-2.46c-.76-4.82-6.19-1.25-8.49-.47z" transform="translate(-7.15 -25.05)" fill="url(#q)"/><path d="M380.13 66.63c4.59-6.9 13.09-10.2 21.31-11.23 1.39-.18 3.22 0 3.62 1.31a2.29 2.29 0 01-.21 1.6c-1.4 2.95-5.77 3.52-7.16 6.47a8.87 8.87 0 00-.6 3c-.74 8.81-3.35 18-9.91 23.92a9 9 0 01-3.75 2.3 11 11 0 01-3.67.1c-1.75-.16-3.52-.32-5.26-.59s-2.32-.43-2-2.21c.53-2.78 1.76-5.53 2.35-8.34 1.15-5.61 2.05-11.48 5.28-16.33z" transform="translate(-7.15 -25.05)" fill="url(#r)"/><path d="M359.7 71.53a1.34 1.34 0 00.1.8 1.36 1.36 0 00.73.49l14.4 5.56a3.41 3.41 0 001.87.33 3 3 0 001.47-1 14.48 14.48 0 003.8-8.79 1.17 1.17 0 00-.2-.9 1.27 1.27 0 00-.81-.29c-5.33-.65-10.26-3.67-15.41-5.1-6.16-1.68-5.56 3.94-5.95 8.9z" fill="#fff"/><path d="M303.04 305.03H187.85c0-2.65 3.37-15.82 5.95-17.71s8.27-.72 11.47-.72q15.12 0 30.18-.44c10.09-.36 20.14-.87 30.19-1.6 2.83-.18 28.19-3.81 28.81-2.54 2.75 5.52 8.55 20.5 8.59 23.01z" fill="#606161"/><path d="M122.23 196.55l40.86-2.25c1.7-.09 3.62-.29 4.68-1.61s.87-3.18.65-4.85a130.79 130.79 0 01-.43-29.2c.34-3.53.89-7.19 2.94-10.08s6-4.69 9.24-3.18a5.81 5.81 0 001.74.71c2 .22 2.9-2.87 1.62-4.42s-3.52-1.83-5.52-2c-10.79-.81-21.64-.37-32.41-1.21-6.19-.48-12.51-2.47-18.28.73-17.63 9.81-8.74 42.35-5.09 57.36z" fill="#6246ea"/><path d="M153.58 163.81l-5.79-.69s7.15 21.46 15.32 34.06 19.07 33.37 19.41 38.48 13.28 56.87 8.52 71.85-10.22 22.65-10.22 22.65h60.61L238 223.74l-80.94-60" transform="translate(-7.15 -25.05)" opacity=".26" fill="url(#s)"/><path d="M132.12 165.68s-8.34 5.28 2 43.42c0 0 4-.13 3.91 4.47l26.82-2s-1.53-3.7 3.45-4.72c0 0-7.28-27.33-5.75-32.44a13.72 13.72 0 00-1-9.7s-13.11-1.54-15.32-1.71-7.81-2.43-14.11 2.68z" transform="translate(-7.15 -25.05)" fill="url(#t)"/><path d="M164.62 56.66c5.34-2.61 11.59-2 17.49-2.71a41.35 41.35 0 0017.6-6.23 77.06 77.06 0 003.59 27.1c-5.47-.22-11.31-.35-16 2.5-4.15 2.53-6.77 7.08-11 9.54-4.71 2.78-10.56 2.46-16 2.06 1.74-3.58-.62-7.72-3-10.9-2.94-3.91-5.22-7.2-2.68-11.66a25.36 25.36 0 0110-9.7z" fill="#6246ea"/><path d="M173.22 82.38c4.72-2.31 10.26-1.81 15.48-2.39a36.56 36.56 0 0015.58-5.52 68 68 0 003.18 24c-4.85-.2-10-.31-14.15 2.21-3.67 2.24-6 6.26-9.7 8.44-4.17 2.46-9.35 2.18-14.17 1.82 1.54-3.16-.56-6.83-2.68-9.64-2.6-3.46-4.62-6.37-2.37-10.32a22.44 22.44 0 018.83-8.6z" transform="translate(-7.15 -25.05)" fill="url(#u)"/><path d="M423.33 60.13c-.77-4.87.9-10.48 5.21-12.88 2.56-1.43 5.62-1.54 8.55-1.61l19.85-.51a24.94 24.94 0 004.73 17.71c3.46 4.62 8.48 8 11.68 12.76a21.87 21.87 0 01-2.36 26.35 71.49 71.49 0 00-28 1.68c2-5.43-1.55-11.3-5.48-15.57-6.73-7.34-12.61-17.84-14.18-27.93z" fill="#6246ea"/><path d="M433.6 87.32c-1-4.55.16-9.92 3.76-12.42 2.14-1.48 4.79-1.75 7.33-2l17.2-1.56A25 25 0 00467 87.78c3.28 4.17 7.84 7 10.9 11.39 5 7.2 4.82 18.12-.49 25a57.22 57.22 0 00-24.19 3.1c1.45-5.23-2-10.56-5.68-14.37-6.26-6.59-11.98-16.17-13.94-25.58z" transform="translate(-7.15 -25.05)" opacity=".26" fill="url(#v)"/><path d="M32.72 189.06a2.07 2.07 0 00-.84 1.06 2.11 2.11 0 00.61 1.62 189.81 189.81 0 0013.21 15.54 3.07 3.07 0 001.44 1 3.09 3.09 0 001.9-.42l8.27-3.83c2.93-1.36 5.94-2.77 8.2-5.09 4.46-4.6 5-11.61 5.3-18-6.21-5.35-12.13-16.08-19.77-11.12-6.57 4.27-11.9 14-18.32 19.24zM413.21 259.15a134.57 134.57 0 0018.33 12.62c2.94-12.63 15.1-20.13 25.45-26.3-19.14-22.19-39.41 17.26-43.78 13.68z" fill="#6246ea"/><path d="M403.99 215.11v-8.35c-11-.91-17.43-7.43-18.35-16.23h8.07a12 12 0 0010.28 9.81v-22.2c-12.2-3.67-17-8.26-17-16.79 0-9.26 7.15-15.41 17-16.05v-6.24h5.23v6.33c12.2 1.19 16.14 9.08 16.69 14.77h-7.89c-1-3.76-3.21-7.43-8.8-8.44v20c14 4 18.07 9.91 18.07 18.07 0 10.18-6.79 16.15-18.07 17v8.35zm0-44.95v-18.62c-6.61.55-9 4.49-9 8.9s2.12 7.34 9 9.72zm5.23 9.54v20.73c6.33-.64 9.72-3.85 9.72-9.81 0-4.86-2.09-8.26-9.72-10.92z" fill="#6246ea" opacity=".24"/><path d="M406.52 214.48v-8.35c-11-.92-17.43-7.43-18.35-16.24h8.07a12 12 0 0010.28 9.82v-22.2c-12.2-3.67-17-8.26-17-16.79 0-9.26 7.15-15.41 17-16.05v-6.24h5.23v6.33c12.2 1.19 16.15 9.08 16.7 14.77h-7.89c-1-3.76-3.21-7.43-8.81-8.44v20c14 4 18.07 9.9 18.07 18.07 0 10.18-6.79 16.14-18.07 17v8.35zm0-44.95v-18.58c-6.61.55-9 4.49-9 8.89s2.12 7.3 9 9.69zm5.23 9.54v20.73c6.33-.64 9.72-3.85 9.72-9.82 0-4.86-2.11-8.25-9.72-10.91z" fill="#fff"/><path d="M403.66 89.4v-3c-3.89-.32-6.16-2.62-6.48-5.73h2.85a4.2 4.2 0 003.63 3.46v-7.84c-4.31-1.29-6-2.91-6-5.93 0-3.27 2.53-5.44 6-5.67v-2.2h1.84v2.23c4.32.43 5.71 3.21 5.9 5.22h-2.78a3.73 3.73 0 00-3.12-3V74c5 1.43 6.39 3.5 6.39 6.39 0 3.59-2.4 5.7-6.39 6v3zm0-15.88v-6.57c-2.34.19-3.18 1.58-3.18 3.14s.75 2.59 3.18 3.43zm1.84 3.37v7.33c2.24-.23 3.44-1.37 3.44-3.47 0-1.72-.75-2.92-3.44-3.86z" fill="#6246ea" opacity=".24"/><path d="M404.55 89.18v-3c-3.89-.33-6.15-2.63-6.48-5.74h2.85a4.23 4.23 0 003.63 3.51v-7.84c-4.31-1.3-6-2.92-6-5.93 0-3.27 2.52-5.45 6-5.67v-2.2h1.85v2.24c4.31.42 5.7 3.21 5.9 5.22h-2.79a3.7 3.7 0 00-3.11-3v7.08c5 1.43 6.38 3.5 6.38 6.38 0 3.6-2.4 5.71-6.38 6v3zm0-15.88v-6.58c-2.33.2-3.17 1.59-3.17 3.14s.74 2.6 3.17 3.44zm1.85 3.37v7.28c2.24-.22 3.43-1.36 3.43-3.46.02-1.68-.74-2.88-3.43-3.82z" fill="#fff"/><path d="M84.58 98.5v-3c-3.89-.32-6.16-2.63-6.48-5.74h2.85a4.21 4.21 0 003.63 3.47v-7.84c-4.31-1.3-6-2.92-6-5.93 0-3.27 2.53-5.44 6-5.67v-2.2h1.84v2.23c4.31.42 5.71 3.21 5.9 5.22h-2.78a3.72 3.72 0 00-3.12-3v7.06c5 1.43 6.39 3.5 6.39 6.38 0 3.6-2.4 5.71-6.39 6v3zm0-15.88v-6.58c-2.34.2-3.18 1.59-3.18 3.15s.75 2.59 3.18 3.43zm1.84 3.33v7.32c2.24-.18 3.43-1.32 3.43-3.42 0-1.72-.74-2.9-3.43-3.9z" fill="#6246ea" opacity=".24"/><path d="M85.47 98.27v-2.94c-3.89-.33-6.15-2.63-6.48-5.74h2.86a4.23 4.23 0 003.63 3.47v-7.84c-4.31-1.3-6-2.92-6-5.93 0-3.28 2.52-5.45 6-5.67v-2.21h1.85v2.24c4.31.42 5.7 3.21 5.9 5.21h-2.8a3.73 3.73 0 00-3.11-3v7.09c5 1.42 6.38 3.5 6.38 6.38 0 3.6-2.4 5.7-6.38 6v2.94zm0-15.87v-6.58c-2.33.19-3.17 1.59-3.17 3.14s.74 2.59 3.17 3.44zm1.85 3.37v7.32c2.24-.23 3.43-1.36 3.43-3.47 0-1.67-.74-2.91-3.43-3.85z" fill="#fff"/><path d="M23.99 238.95v-4c-5.24-.43-8.29-3.54-8.73-7.73h3.84a5.71 5.71 0 004.89 4.73v-10.6c-5.81-1.75-8.08-3.93-8.08-8 0-4.41 3.41-7.34 8.08-7.64v-3h2.49v3c5.81.57 7.69 4.32 7.95 7h-3.76a5 5 0 00-4.19-4v9.52c6.68 1.92 8.6 4.72 8.6 8.6 0 4.85-3.23 7.69-8.6 8.08v4zm0-21.4v-8.86c-3.14.26-4.28 2.13-4.28 4.23s1.01 3.49 4.28 4.63zm2.49 4.54v9.86c3-.31 4.63-1.83 4.63-4.67 0-2.33-1-3.92-4.63-5.19z" fill="#6246ea" opacity=".24"/><path d="M25.2 238.64v-4c-5.24-.44-8.3-3.54-8.74-7.73h3.85a5.67 5.67 0 004.89 4.67v-10.53c-5.81-1.75-8.08-3.93-8.08-8 0-4.41 3.4-7.34 8.08-7.65v-3h2.49v3c5.8.57 7.68 4.32 7.94 7h-3.78a5 5 0 00-4.19-4v9.55c6.68 1.92 8.6 4.72 8.6 8.6 0 4.85-3.23 7.69-8.6 8.08v4zm0-21.39v-8.87c-3.15.27-4.28 2.14-4.28 4.24s1 3.49 4.28 4.63zm2.49 4.54v9.87c3-.31 4.62-1.84 4.62-4.67 0-2.32-1-3.93-4.62-5.2z" fill="#fff"/><path d="M151.51 151.56h-2.84c-.3 3.74-2.5 5.92-5.49 6.24v-2.74a4 4 0 003.32-3.5h-7.53c-1.24 4.15-2.79 5.77-5.69 5.78-3.15 0-5.24-2.42-5.47-5.75h-2.12v-1.74h2.16c.39-4.14 3.07-5.49 5-5.68v2.68a3.56 3.56 0 00-2.86 3h6.79c1.36-4.77 3.35-6.15 6.12-6.15 3.46 0 5.49 2.29 5.78 6.12h2.84zm-15.26 0h-6.33c.19 2.24 1.54 3.05 3 3.05s2.52-.66 3.33-3.01zm3.23-1.79h7c-.22-2.15-1.31-3.3-3.34-3.3-1.61.04-2.76.75-3.66 3.34z" fill="#6246ea" opacity=".24"/><path d="M151.29 150.7h-2.83c-.3 3.74-2.51 5.92-5.5 6.24v-2.74a4.07 4.07 0 003.33-3.5h-7.54c-1.24 4.15-2.79 5.77-5.69 5.78-3.15 0-5.24-2.42-5.46-5.75h-2.12v-1.78h2.15c.4-4.14 3.07-5.49 5-5.68v2.68a3.56 3.56 0 00-2.86 3h6.79c1.36-4.77 3.35-6.15 6.13-6.15 3.45 0 5.48 2.29 5.77 6.12h2.84zm-15.26 0h-6.33c.2 2.25 1.54 3 3 3s2.52-.63 3.33-2.96zm3.23-1.79h7c-.22-2.15-1.31-3.3-3.34-3.3-1.61.04-2.76.75-3.66 3.34z" fill="#fff"/><path d="M178.32 75.85l-.54-1.84c-2.5.51-4.34-.52-5.11-2.41l1.78-.52a2.77 2.77 0 002.91 1.51l-1.44-4.91c-2.93 0-4.28-.73-4.84-2.61-.6-2.05.59-3.88 2.72-4.65l-.41-1.38 1.16-.34.41 1.4c2.77-.53 4.16 1 4.65 2.18l-1.75.51a2.42 2.42 0 00-2.49-1.29l1.29 4.45c3.37 0 4.64 1 5.17 2.82.66 2.26-.45 4-2.9 4.93l.54 1.84zm-2.91-9.9l-1.21-4.11a2 2 0 00-1.41 2.54c.29.96.94 1.45 2.62 1.57zm1.77 1.77l1.34 4.59a2.14 2.14 0 001.52-2.8c-.32-1.12-1-1.73-2.86-1.83z" fill="#6246ea" opacity=".24"/><path d="M178.85 75.55l-.54-1.85c-2.5.51-4.34-.51-5.11-2.4l1.78-.52a2.75 2.75 0 002.91 1.5l-1.44-4.91c-2.93 0-4.29-.72-4.84-2.61-.6-2 .59-3.87 2.71-4.65l-.4-1.38 1.16-.34.41 1.4c2.77-.52 4.16 1 4.65 2.19l-1.75.51a2.42 2.42 0 00-2.49-1.3l1.29 4.43c3.37 0 4.64 1 5.17 2.82.66 2.25-.46 4-2.9 4.92l.54 1.85zm-2.92-9.94l-1.2-4.12a2 2 0 00-1.41 2.55c.28 1 .93 1.49 2.6 1.57zm1.78 1.77l1.33 4.57a2.14 2.14 0 001.52-2.8c-.32-1.06-1-1.68-2.86-1.77z" fill="#fff"/><path d="M441.26 253.88l-1.12-.81a3 3 0 01-4 .87l.79-1.09a2 2 0 002.33-.41l-3-2.18c-1.69 1.28-2.77 1.47-3.91.64a2.73 2.73 0 01-.5-3.85l-.83-.62.51-.7.85.62a2.76 2.76 0 013.62-.79l-.78 1.06a1.75 1.75 0 00-2 .35l2.68 2c1.92-1.49 3.1-1.45 4.2-.65 1.36 1 1.5 2.49.5 4.09l1.12.81zm-6-4.4l-2.5-1.82a1.41 1.41 0 00.31 2.07c.58.44 1.17.44 2.16-.25zm1.79.23l2.78 2a1.54 1.54 0 00-.36-2.27c-.68-.44-1.35-.49-2.45.27z" fill="#6246ea" opacity=".24"/><path d="M441.42 253.48l-1.12-.81a3 3 0 01-4 .87l.79-1.09a2 2 0 002.32-.41l-3-2.18c-1.68 1.28-2.77 1.47-3.91.63a2.72 2.72 0 01-.49-3.85l-.84-.61.51-.7.85.62a2.76 2.76 0 013.62-.79l-.77 1.06a1.74 1.74 0 00-2 .35l2.68 2c1.92-1.49 3.1-1.45 4.2-.65 1.36 1 1.5 2.49.5 4.08l1.12.82zm-6-4.4l-2.5-1.82a1.41 1.41 0 00.32 2.07c.61.44 1.16.44 2.15-.25zm1.79.23l2.79 2a1.53 1.53 0 00-.37-2.26c-.68-.45-1.34-.5-2.45.26z" fill="#fff"/><path d="M454.27 208.82c-.6 6.18-6.67 7.69-6.24 13.88 4.95-1.86 10.31-1.61 15.36-.34s9.59 4 14.52 5.64a17.93 17.93 0 011.58-5.56c.92-1.79 2.07-3.46 2.95-5.27-1.34.25-2.57-.72-3.67-1.52-4.42-3.24-9.91-4.46-15.28-4.86-1.25-.09-9.44.33-9.22-1.97z" fill="#6246ea"/><path d="M463.05 220.62l.39-.91a2.14 2.14 0 01-1.25-2.61l.88.37a1.4 1.4 0 00.66 1.54l1-2.41c-1.16-1-1.47-1.68-1.08-2.61a1.94 1.94 0 012.59-1l.29-.68.57.24-.3.69a2 2 0 011.14 2.37l-.86-.36a1.25 1.25 0 00-.57-1.32l-.92 2.17c1.34 1.09 1.51 1.91 1.13 2.8a2 2 0 01-2.74 1l-.39.91zm2.07-4.89l.86-2a1 1 0 00-1.39.55c-.2.47-.1.88.53 1.45zm.13 1.28l-.95 2.26a1.1 1.1 0 001.51-.62c.22-.53.15-1-.56-1.64z" fill="#6246ea" opacity=".24"/><path d="M463.36 220.67l.38-.91a2.16 2.16 0 01-1.25-2.61l.88.37a1.42 1.42 0 00.67 1.54l1-2.41c-1.16-1-1.46-1.68-1.07-2.61a1.93 1.93 0 012.58-1l.29-.68.57.24-.29.69a2 2 0 011.13 2.37l-.85-.36a1.24 1.24 0 00-.57-1.32l-.92 2.17c1.34 1.09 1.5 1.91 1.13 2.8a2 2 0 01-2.75 1l-.38.91zm2.07-4.89l.86-2a1 1 0 00-1.39.56c-.21.46-.11.86.53 1.44zm.13 1.28l-1 2.25a1.09 1.09 0 001.51-.62c.27-.53.19-.99-.51-1.63z" fill="#fff"/><path d="M440.49 75.95l2.19-.68c-.66-3 .53-5.18 2.77-6.14l.65 2.12a3.3 3.3 0 00-1.74 3.5l5.83-1.8c0-3.5.79-5.13 3-5.82 2.43-.75 4.63.62 5.59 3.15l1.64-.51.43 1.37-1.66.52c.67 3.3-1.08 5-2.52 5.58l-.65-2.07a2.88 2.88 0 001.5-3l-5.25 1.63c.09 4-1.13 5.55-3.27 6.22-2.67.83-4.79-.47-5.93-3.37l-2.19.68zm11.8-3.66l4.89-1.51a2.35 2.35 0 00-3.07-1.64c-1.18.37-1.76 1.15-1.82 3.15zm-2.08 2.15l-5.45 1.69c.69 1.61 1.81 2.24 3.37 1.75 1.28-.39 2-1.22 2.08-3.44z" fill="#6246ea" opacity=".24"/><path d="M440.85 76.56l2.19-.68c-.66-3 .53-5.18 2.77-6.13l.66 2.12a3.26 3.26 0 00-1.74 3.49l5.82-1.81c0-3.5.79-5.12 3-5.82 2.43-.75 4.63.63 5.6 3.15l1.63-.51.43 1.38-1.66.51c.68 3.3-1.07 5-2.52 5.59l-.64-2.07a2.91 2.91 0 001.5-3l-5.25 1.62c.08 4-1.13 5.56-3.28 6.22-2.67.83-4.79-.47-5.92-3.36l-2.2.68zm11.81-3.61l4.89-1.51a2.35 2.35 0 00-3.07-1.64c-1.18.32-1.75 1.15-1.82 3.15zm-2.08 2.15l-5.44 1.69c.68 1.61 1.8 2.24 3.37 1.76 1.27-.45 1.99-1.28 2.07-3.5z" fill="#fff"/><path d="M56.66 263.5l.27-1.31a2.91 2.91 0 01-2.35-3.15l1.27.26a1.92 1.92 0 001.29 1.88l.73-3.49c-1.8-1-2.4-1.85-2.12-3.2a2.64 2.64 0 013.19-2l.2-1 .83.17-.21 1a2.67 2.67 0 012.14 2.87l-1.24-.26a1.7 1.7 0 00-1.11-1.62l-.65 3.15c2.07 1.09 2.52 2.15 2.25 3.43-.33 1.6-1.59 2.32-3.4 2.08l-.27 1.31zm1.47-7.07l.61-2.93a1.39 1.39 0 00-1.71 1.11c-.18.71.09 1.22 1.1 1.82zm.51 1.67l-.68 3.26a1.48 1.48 0 001.89-1.22c.12-.77-.1-1.37-1.21-2.04z" fill="#6246ea" opacity=".24"/><path d="M57.08 263.49l.27-1.32a2.91 2.91 0 01-2.35-3.15l1.27.26a1.9 1.9 0 001.29 1.88l.73-3.49c-1.8-1-2.4-1.85-2.12-3.19a2.63 2.63 0 013.19-2l.2-1 .83.17-.21 1a2.67 2.67 0 012.14 2.87l-1.24-.26a1.69 1.69 0 00-1.11-1.61l-.65 3.14c2.07 1.1 2.52 2.15 2.25 3.44-.33 1.6-1.6 2.31-3.4 2.07l-.27 1.32zm1.47-7.07l.61-2.93a1.37 1.37 0 00-1.71 1.1c-.15.71.09 1.23 1.1 1.83zm.51 1.67l-.68 3.26a1.49 1.49 0 001.85-1.23c.16-.76-.06-1.37-1.17-2.03z" fill="#6246ea"/><path d="M88.9 168.86v-5.54c-7.31-.61-11.58-4.94-12.19-10.79h5.36a8 8 0 006.83 6.52v-14.74c-8.11-2.44-11.28-5.49-11.28-11.15 0-6.16 4.76-10.24 11.28-10.67v-4.14h3.47v4.2c8.11.79 10.73 6 11.09 9.81h-5.24a7 7 0 00-5.85-5.6v13.28c9.33 2.68 12 6.58 12 12 0 6.77-4.51 10.73-12 11.28v5.54zm0-29.85v-12.37c-4.39.36-6 3-6 5.91s1.43 4.87 6 6.46zm3.47 6.33v13.77c4.21-.42 6.46-2.56 6.46-6.52.02-3.23-1.4-5.48-6.46-7.25z" fill="#6246ea" opacity=".24"/><path d="M90.58 168.44v-5.49c-7.31-.61-11.58-4.94-12.19-10.79h5.37a7.93 7.93 0 006.82 6.52v-14.79c-8.1-2.44-11.27-5.49-11.27-11.15 0-6.16 4.75-10.24 11.27-10.67v-4.12h3.47v4.2c8.11.79 10.73 6 11.09 9.81H99.9a7 7 0 00-5.85-5.6v13.28c9.33 2.68 12 6.58 12 12 0 6.77-4.51 10.73-12 11.28v5.54zm0-29.85v-12.37c-4.39.36-6 3-6 5.91s1.43 4.87 6 6.46zm3.47 6.36v13.77c4.21-.42 6.46-2.56 6.46-6.52 0-3.25-1.4-5.51-6.46-7.25z" fill="#fff"/><path d="M375.1 86.49c-23.11 37.12-72.06 109.36-77.25 152.79-1.27 10.81-1.45 21.74-1.85 32.62-.15 2.87-.11 7.69-1.6 10.12-2.54 4.1-8.09 3.38-12.84 3.85-16.91 1.71-34.84 1.89-52 1.74-12.63-.07-24.82-.33-35.85-.29-.69-12.73-1.92-27-2.61-39.73-.62-11.39-1.27-22.93-4.54-33.85-2.79-9.18-7.36-17.71-11.93-26.13q-26.62-48.6-55.52-95.89c-1.27-2.07-7.4-9.76-6.71-12.09a5.21 5.21 0 01.29-.65 9.3 9.3 0 012.25-2.68 42.09 42.09 0 019.91-6.35 5.07 5.07 0 012.51-.61c1.23.14 7 6.35 7.87 7.25l49.62 50.43c10.71 10.89 22.86 14.33 37.52 18.72 6.61 2 13.57 2.43 20.47 2.51 16.18.14 36 .25 48.11-11.54 14.4-14.08 55.29-52.25 68.65-67.42l14.29 8.42a6.56 6.56 0 012.54 2.11c1.21 2.06-.06 4.64-1.33 6.67z" fill="#6246ea"/><path d="M246.75 188.33a12.72 12.72 0 0013.58 1.67 9.09 9.09 0 004.3-3.61 13.64 13.64 0 001.36-5.5l.66-6.36a47.8 47.8 0 00.32-10.39c-.39-3.37-1.63-6.6-4-8.43-3.11-2.42-7.65-1.92-11.45.16-12.26 6.77-14.19 24.32-4.77 32.46z" transform="translate(-7.15 -25.05)" fill="url(#w)"/><path d="M265.27 162.36s-9.19 23-22.73 18.39c0 0-3.57-.77-.25-15.33s22.98-3.06 22.98-3.06z" transform="translate(-7.15 -25.05)" opacity=".26" fill="url(#x)"/><path d="M226.89 144.47c1.05 9.06 5.14 18.42 13.09 22.69 7.37 4 16.65 2.71 24.07-1.21a22.37 22.37 0 007.95-6.52 27.86 27.86 0 003.82-9c1.49-5.41 2.57-11 2.09-16.6a29.91 29.91 0 00-41.23-25.18c-6.29 2.58-9.13 6.51-9.45 13.17-.36 7.54-1.23 15.11-.34 22.65z" transform="translate(-7.15 -25.05)" fill="url(#y)"/><path d="M216.01 97.95c0-2.84.46-5.73-.26-8.47-.68-2.55-2.36-4.73-3.26-7.21a12.83 12.83 0 012.58-12.83 15.14 15.14 0 016.83-4.09 19.26 19.26 0 0110.19-.25c2.11.53 4.11 1.41 6.23 1.87 3 .64 6.15.4 9.23.38 4.89 0 9.89.52 14.32 2.59s8.25 5.82 9.51 10.55a13.26 13.26 0 001.21 3.78 24.15 24.15 0 002.6 2.76c2 2.27 2.31 5.51 2.54 8.51a17.47 17.47 0 01-.42 7.1c-.74 2.14-2.27 3.89-3.44 5.82a38.55 38.55 0 00-3.45 8.46c-.57-1.12-.38-2.45-.51-3.7s-.89-2.67-2.15-2.67a2.6 2.6 0 00-2.14 1.77 12.74 12.74 0 01-1.17 2.7 1 1 0 01-1 .5c-.34-.1-.5-.48-.61-.81-.89-3 .13-6.22.27-9.36a16.72 16.72 0 00-5.08-12.66 21.87 21.87 0 00-11.95-5.4 57.44 57.44 0 00-13.3 0c-2.59.22-5.3.52-7.44 2-2.41 1.65-3.71 4.5-4.41 7.33-.55 2.26-.38 6.86-2 8.47-2.31-1.33-2.88-4.81-2.92-7.14z" fill="#e08142"/><path d="M38.31 187.45s.25 4.77-1.36 5.45l7.9 9.71s3.32-2.56 5.45-1.28c0 0 6.64-9.11 11.58-13.71s8.17-7.23 8.17-7.23-6.21-7.5-8.68-9-4.16-2.44-4.16-2.44-5.45.62-18.9 18.5z" fill="#fff"/><path d="M60.87 228.42S73.13 209.69 75 210.71s-.77 9.62-1.62 11.16-7.58 6.55-7.58 6.55l-6.72 3z" transform="translate(-7.15 -25.05)" fill="url(#z)"/><path d="M226.79 312.62l-25.85-.25c-.69-12.73-1.92-27-2.61-39.73-.62-11.39-1.27-22.93-4.54-33.85-2.79-9.18-7.36-17.71-11.93-26.13q-26.62-48.6-55.52-95.89c-1.27-2.07-7.4-9.76-6.71-12.09a5.21 5.21 0 01.29-.65L126 99.1l3.77 8.16s55.15 78.34 68.76 88.57S221.69 230.55 221 236c-.62 4.87 13.09 61.62 16 74.24.37 1.52-10.21 2.38-10.21 2.38z" transform="translate(-7.15 -25.05)" fill="url(#A)"/><path d="M62.21 183.59l-1-1.21a3.43 3.43 0 01-4.62-.16l1.17-1a2.25 2.25 0 002.67.2l-2.66-3.23c-2.21.94-3.46.84-4.48-.39a3.1 3.1 0 01.53-4.37l-.74-.91.77-.57.76.92a3.13 3.13 0 014.2.14l-1.16.94a2 2 0 00-2.3-.17l2.41 2.9c2.52-1.1 3.81-.73 4.79.46 1.22 1.47 1 3.15-.59 4.63l1 1.21zm-5.36-6.52l-2.24-2.71a1.61 1.61 0 00-.23 2.37c.47.66 1.15.82 2.47.34zm1.9.75l2.49 3a1.74 1.74 0 00.24-2.59c-.63-.7-1.34-.94-2.77-.41z" fill="#6246ea" opacity=".24"/><path d="M62.5 183.19l-1-1.21a3.43 3.43 0 01-4.62-.15l1.18-1a2.25 2.25 0 002.67.19l-2.67-3.22c-2.21.93-3.45.84-4.48-.4a3.09 3.09 0 01.54-4.37l-.75-.9.76-.63.76.92a3.12 3.12 0 014.19.13l-1.14 1a2 2 0 00-2.29-.16l2.4 2.9c2.52-1.1 3.81-.74 4.79.45 1.22 1.48 1 3.16-.58 4.63l1 1.22zm-5.4-6.52l-2.25-2.72a1.61 1.61 0 00-.23 2.37c.55.63 1.23.83 2.48.35zm1.91.76l2.49 3a1.76 1.76 0 00.23-2.6c-.59-.69-1.3-.88-2.72-.4z" fill="#6246ea"/></svg>