<?xml version="1.0" encoding="UTF-8"?>
<svg id="Layer_2" data-name="Layer 2" xmlns="http://www.w3.org/2000/svg" xmlns:xlink="http://www.w3.org/1999/xlink" viewBox="0 0 348.02 311.23">
  <defs>
    <style>
      .cls-1 {
        fill: url(#linear-gradient-2);
      }

      .cls-2 {
        fill: url(#radial-gradient);
      }

      .cls-3 {
        fill: url(#radial-gradient-2);
      }

      .cls-4 {
        fill: url(#radial-gradient-3);
      }

      .cls-5 {
        fill: url(#linear-gradient-3);
      }

      .cls-6 {
        fill: url(#linear-gradient);
      }
    </style>
    <linearGradient id="linear-gradient" x1="37.65" y1="269.17" x2="307.84" y2="42.44" gradientUnits="userSpaceOnUse">
      <stop offset="0" stop-color="#f2a900"/>
      <stop offset=".19" stop-color="#ee7f0a"/>
      <stop offset=".46" stop-color="#ea4918"/>
      <stop offset=".7" stop-color="#e62122"/>
      <stop offset=".89" stop-color="#e40828"/>
      <stop offset="1" stop-color="#e4002b"/>
    </linearGradient>
    <radialGradient id="radial-gradient" cx="91.17" cy="15.03" fx="91.17" fy="15.03" r="15.03" gradientUnits="userSpaceOnUse">
      <stop offset="0" stop-color="#ccc"/>
      <stop offset="0" stop-color="#cccbcb"/>
      <stop offset=".15" stop-color="#d6c295"/>
      <stop offset=".29" stop-color="#deba67"/>
      <stop offset=".44" stop-color="#e5b442"/>
      <stop offset=".58" stop-color="#ebaf25"/>
      <stop offset=".72" stop-color="#eeab10"/>
      <stop offset=".86" stop-color="#f1a904"/>
      <stop offset="1" stop-color="#f2a900"/>
    </radialGradient>
    <linearGradient id="linear-gradient-2" x1="109.62" y1="205.34" x2="230.12" y2="104.22" xlink:href="#linear-gradient"/>
    <linearGradient id="linear-gradient-3" x1="169.56" y1="251.61" x2="169.56" y2="59" gradientUnits="userSpaceOnUse">
      <stop offset="0" stop-color="#0a0a0a"/>
      <stop offset=".51" stop-color="#0b0b0b"/>
      <stop offset=".7" stop-color="#121212"/>
      <stop offset=".83" stop-color="#1e1e1e"/>
      <stop offset=".94" stop-color="#2f2f2e"/>
      <stop offset="1" stop-color="#3d3d3c"/>
    </linearGradient>
    <radialGradient id="radial-gradient-2" cx="63.13" cy="279.39" fx="63.13" fy="279.39" r="12.3" gradientUnits="userSpaceOnUse">
      <stop offset="0" stop-color="#ccc"/>
      <stop offset="0" stop-color="#cccbcb"/>
      <stop offset=".15" stop-color="#d295a1"/>
      <stop offset=".29" stop-color="#d7677d"/>
      <stop offset=".44" stop-color="#dc425f"/>
      <stop offset=".58" stop-color="#df2548"/>
      <stop offset=".72" stop-color="#e21038"/>
      <stop offset=".86" stop-color="#e3042e"/>
      <stop offset="1" stop-color="#e4002b"/>
    </radialGradient>
    <radialGradient id="radial-gradient-3" cx="313.21" cy="136.16" fx="313.21" fy="136.16" r="8.25" xlink:href="#radial-gradient"/>
  </defs>
  <g id="Layer_1-2" data-name="Layer 1">
    <path class="cls-6" d="m348.02,158.34c0-14.65-31.75-29.21-79.71-37.82,28.85-41.14,42.97-76.37,30.13-89.2-15.21-15.21-61.85,7.42-112.54,47.58C146.15,25.22,105.39-5.88,85.34,5.7c-18.83,10.87-14.2,56.33,8.44,112.53C38.06,126.38,0,142.31,0,158.34c0,14.03,29.16,27.88,73.8,36.52-28.35,40.26-39.2,73.16-25.63,86.73,16.3,16.3,60.49-2.65,111.82-44.81,38.47,53.71,76.97,86.26,98.88,70.45,20.25-14.61,15.82-56.17-5.67-108.85,56.29-8.01,94.81-23.9,94.81-40.03Zm-54.81-123.11c11.16,11.16-3.81,45.32-31.17,84.21-16.05-2.63-33.74-4.61-52.55-5.73-6.71-10.79-13.58-21.02-20.49-30.58,46.73-37.27,91.07-61.05,104.21-47.9Zm-94.84,159.47c-1.53,1.53-3.06,3.04-4.59,4.54-6.48.24-13.07.36-19.77.36-10.87,0-21.48-.33-31.72-.94-3.77-5.93-7.48-12.05-11.11-18.33-5.63-9.76-10.76-19.36-15.38-28.72,6.04-6.67,12.47-13.43,19.25-20.21,4.73-4.73,9.57-9.41,14.46-14.02,7.98-.37,16.15-.57,24.49-.57,10.47,0,20.71.31,30.61.89,3.03,4.86,6.04,9.87,9.02,15.02,5.55,9.62,10.76,19.22,15.57,28.69-9.77,11.37-20.16,22.61-30.84,33.29Zm33.47-28.04c4.74,9.57,9.05,18.98,12.87,28.1-13.38,1.92-27.86,3.34-43.09,4.13.16-.16.31-.31.47-.46,10.42-10.42,20.4-21.09,29.75-31.77Zm-42.51,36.89c-9.16,8.77-18.22,16.86-27.05,24.19-5.78-7.75-11.53-16.01-17.16-24.68,9.4.45,19.05.69,28.9.69,5.16,0,10.27-.07,15.32-.19Zm-54.8-5.41c-18.53-1.39-35.72-3.72-50.93-6.72,7.83-11.07,17.11-22.75,27.69-34.75,4.46,8.79,9.28,17.7,14.44,26.65,2.9,5.03,5.84,9.97,8.79,14.82Zm-21.23-51.69c-4.04-8.45-7.64-16.68-10.8-24.62,12.13-1.79,25.19-3.16,38.9-4.01-3.37,3.23-6.73,6.52-10.06,9.85-6.29,6.29-12.31,12.57-18.04,18.78Zm40.94-33.45c9.77-9,19.75-17.66,29.68-25.76,6,8.06,12,16.77,17.94,26.08-9.07-.42-18.37-.65-27.85-.65-6.69,0-13.28.11-19.77.33Zm64.71,16.5c-2.21-3.82-4.44-7.59-6.7-11.29,16.73,1.23,32.41,3.23,46.54,5.8-7.63,10.57-16.11,21.44-25.19,32.24-4.54-8.77-9.44-17.7-14.66-26.75ZM96.92,25.78c17.16-9.91,50.06,13.12,83.82,57.26-11.48,9.31-23.12,19.48-34.6,30.28-15.98.74-31.22,2.1-45.43,3.97-17.82-46.59-19.85-82.23-3.79-91.5ZM16.84,158.34c0-13.63,31.7-27.69,78.84-35.45,3.87,9.3,8.22,18.87,13.03,28.6-11.94,13.27-22.5,26.25-31.49,38.59-36.76-8-60.38-19.98-60.38-31.75Zm43.03,111.54c-11.56-11.56-2.96-39.37,20.48-73.81,17.16,3.02,36.37,5.29,56.93,6.55,6.42,10.37,12.95,20.28,19.48,29.61-44.79,35.98-82.85,51.7-96.9,37.65Zm192.79,26.99c-17.03,7.74-52.24-19.21-87.08-64.76,10.33-8.73,20.91-18.37,31.58-28.82,17.42-.66,34.02-2.05,49.41-4.02,19.6,48.3,24.84,87.51,6.09,97.61Zm-1.37-103.12c-4.38-10.38-9.39-21.17-14.99-32.25,10.53-12.29,20.19-24.52,28.69-36.33,40.2,8.05,66.47,20.78,66.47,33.16,0,13.74-32.34,27.77-80.17,35.41Z"/>
    <circle class="cls-2" cx="91.17" cy="15.03" r="15.03"/>
    <circle class="cls-1" cx="169.87" cy="154.78" r="78.65"/>
    <path class="cls-5" d="m163.49,59.18c-48.15,2.89-87.17,41.92-90.06,90.07-3.45,57.59,43.73,105.12,101.2,102.24,17.73-.89,34.25-6.68,48.22-16.03,1.24-.83,2.87-.69,3.93.36l7.99,7.97c1.21,1.21,3.18,1.21,4.39,0l20.47-20.51c1.21-1.21,1.21-3.18,0-4.39l-8.3-8.28c-1.04-1.03-1.19-2.64-.4-3.87,8.63-13.57,13.97-29.41,14.81-46.36,2.87-57.47-44.66-104.66-102.25-101.2Zm67.94,88.85c1.01,11.29-1.01,22.01-5.32,31.47-.9,1.97-3.5,2.43-5.03.9l-6.86-6.84c-1.21-1.21-3.18-1.21-4.39,0l-20.47,20.51c-1.21,1.21-1.21,3.18,0,4.39l6.86,6.84c1.53,1.53,1.08,4.13-.89,5.04-9.47,4.34-20.21,6.38-31.52,5.38-29.83-2.65-53.81-26.89-56.17-56.74-3.04-38.34,28.75-70.11,67.09-67.07,29.82,2.37,54.04,26.32,56.71,56.11Z"/>
    <circle class="cls-3" cx="63.13" cy="279.39" r="12.3"/>
    <circle class="cls-4" cx="313.21" cy="136.16" r="8.25"/>
  </g>
</svg>