<svg data-name="Layer 1" xmlns="http://www.w3.org/2000/svg" xmlns:xlink="http://www.w3.org/1999/xlink" viewBox="0 0 356.21 295.08"><defs><linearGradient id="b" x1="191.88" y1="195.95" x2="178.38" y2="430.01" gradientUnits="userSpaceOnUse"><stop offset=".01"/><stop offset=".13" stop-opacity=".69"/><stop offset=".25" stop-opacity=".32"/><stop offset="1" stop-opacity="0"/></linearGradient><linearGradient id="a" x1="164.7" y1="139.93" x2="291.02" y2="229.46" gradientUnits="userSpaceOnUse"><stop offset=".01"/><stop offset=".08" stop-opacity=".69"/><stop offset=".21" stop-opacity=".32"/><stop offset="1" stop-opacity="0"/></linearGradient><linearGradient id="c" x1="171.94" y1="170.86" x2="167.7" y2="252.08" xlink:href="#a"/><linearGradient id="d" x1="243.48" y1="214.23" x2="220.6" y2="237.88" xlink:href="#b"/><linearGradient id="e" x1="223.72" y1="278.63" x2="243.54" y2="288.46" xlink:href="#b"/><linearGradient id="f" x1="207.54" y1="304.7" x2="219.14" y2="278.6" xlink:href="#b"/><linearGradient id="g" x1="251.57" y1="212" x2="292.2" y2="242.66" xlink:href="#b"/><linearGradient id="h" x1="251.18" y1="182.07" x2="263.73" y2="209.48" xlink:href="#b"/><linearGradient id="i" x1="255.16" y1="205.96" x2="234.01" y2="209.53" xlink:href="#b"/></defs><path d="M68.46 29.99c-27.54 32.19-26.11 81.64-42 121.39-8.49 21.31-23.5 40.58-26.12 63.37-2.56 22.23 8.1 45.8 27.1 59.93 41.36 30.76 93.18 3.22 138.17 3.81 33.78.45 66.32 19 99.87 16.33a93.08 93.08 0 0029.81-7.81 107.72 107.72 0 0051.78-48.22c6.85-13 10-30.11 9-44.76-1.52-22.33-3.42-45.78-16.28-64.93-17.1-25.45-44.8-29.73-69.57-44.26-26.75-15.69-45-40.41-67.42-60.67C176.85.77 135.68-6.35 103.47 5.94c-15.31 5.87-26.53 14.14-35.01 24.05z" fill="#6246ea" opacity=".18" style="isolation:isolate"/><path d="M327 302.19c-2.49 3.88-7.56 5-12.12 5.7-32.59 4.73-65.75 1-98.47-2.82-2.53-.3-5.28-.7-7-2.57l3.75-3a425.34 425.34 0 01-81.65 2.77c-3.86-.24-8.06-.69-10.78-3.43-1.88-1.88-2.78-4.64-4.87-6.3-2.84-2.25-6.9-1.78-10.49-1.27A275.92 275.92 0 0169.62 294c-8.67.1-18.33-.64-24.24-7 5.62-4.32 12.32-6.95 18.92-9.54 8.48-3.32 17-6.65 25.91-8.57 10.78-2.33 21.88-2.53 32.9-2.73l119.66-2.13c12.33-.22 24.77-.43 36.88 1.9 13.8 2.65 43.38 14.62 31.72 32.49 1.26.1 16.23 2.82 15.63 3.77z" transform="translate(-17.93 -35.06)" fill="url(#b)"/><circle cx="59.25" cy="209.96" r="41.23" fill="#f8c244"/><circle cx="77.19" cy="245.03" r="35.13" transform="rotate(-74.62 45.202 239.251)" fill="#e8a825"/><path d="M53.68 231.63l.6-5.61a16.19 16.19 0 01-8.21-3.35l1.72-3.57a14.84 14.84 0 007.68 3.23c4 .43 6.86-1.54 7.2-4.7s-1.62-5.17-5.54-7.29c-5.42-2.84-8.64-5.77-8.12-10.58.5-4.6 4.14-7.74 9.34-8l.6-5.6 3.44.37-.58 5.37a15.05 15.05 0 017 2.73l-1.74 3.55a13.41 13.41 0 00-6.78-2.65c-4.27-.46-6.15 1.92-6.39 4.13-.31 2.88 1.58 4.54 6.18 7.06 5.46 2.95 8 6.14 7.5 11.07-.47 4.38-4 8.16-9.77 8.49l-.62 5.76z" fill="#f8c244"/><circle cx="107.73" cy="211.05" r="41.23" fill="#f8c244"/><circle cx="125.66" cy="246.12" r="35.13" transform="rotate(-28.72 48.233 263.633)" fill="#e8a825"/><path d="M118.8 230.49l-3.47-4.44a16.2 16.2 0 01-8.23 3.31l-1.25-3.77a14.79 14.79 0 007.77-3c3.15-2.45 3.85-5.88 1.89-8.39s-4.76-2.58-9-1.38c-5.86 1.74-10.21 1.88-13.19-1.94-2.85-3.65-2.41-8.44 1.12-12.26l-3.46-4.44 2.73-2.13 3.32 4.26a15 15 0 016.92-2.91l1.22 3.79a13.35 13.35 0 00-6.71 2.82c-3.39 2.64-3.08 5.65-1.72 7.41 1.79 2.28 4.31 2.16 9.36.77 6-1.69 10-1.19 13.09 2.73 2.71 3.47 2.83 8.62-1.11 12.89l3.56 4.58z" fill="#f8c244"/><path d="M234.13 39.24v204.15a17.83 17.83 0 01-17.83 17.83h-88.36a17.83 17.83 0 01-17.87-17.83V39.24A17.83 17.83 0 01127.9 21.4h88.36a17.83 17.83 0 0117.87 17.84z" fill="#6246ea"/><rect x="112.55" y="24.42" width="119.13" height="233.39" rx="17.24" fill="#473f47"/><path d="M228.3 43.82v192.61a16.47 16.47 0 01-16.63 16.3h-79.31a16.71 16.71 0 01-8.27-2.16 16.22 16.22 0 01-8.38-14.14V43.82a16.48 16.48 0 0116.65-16.3h13.4v2.42a7.89 7.89 0 005 7.17 8.32 8.32 0 003.05.58h36.84a8 8 0 008-7.88v-2.29h13a16.77 16.77 0 0111.49 4.52 16.1 16.1 0 015.16 11.78z" fill="#fff"/><circle cx="172.14" cy="77.98" r="26.85" fill="#6246ea" opacity=".18" style="isolation:isolate"/><path fill="#6246ea" opacity=".18" style="isolation:isolate" d="M128.99 124.63h85.32v69.47h-85.32z"/><path fill="#6246ea" d="M137.18 178.45h14.06v12.25h-14.06z" opacity=".41"/><path fill="#6246ea" d="M151.13 168.92h14.06v21.78h-14.06z"/><path fill="#6246ea" d="M165.08 158.87h14.06v31.83h-14.06z" opacity=".5"/><path fill="#6246ea" d="M179.03 149.08h14.06v41.62h-14.06z"/><path fill="#6246ea" d="M192.98 139.21h14.06v51.49h-14.06z"/><path fill="url(#a)" d="M192.98 139.21h14.06v51.49h-14.06z"/><path fill="url(#c)" d="M131.81 190.7h78.01v3.41h-78.01z"/><path fill="#6246ea" opacity=".18" style="isolation:isolate" d="M128.99 200.5h41.12v52.02h-41.12zM173.19 200.5h41.12v52.02h-41.12z"/><path d="M170.56 97.83v-4.89a14 14 0 01-7.4-2.08l1.13-3.25a12.81 12.81 0 006.93 2c3.46 0 5.75-2 5.74-4.76s-1.9-4.29-5.49-5.73c-4.94-1.91-8-4.12-8-8.32 0-4 2.81-7.07 7.26-7.82v-4.87h3v4.68a13 13 0 016.29 1.66l-1.17 3.25a11.63 11.63 0 00-6.09-1.62c-3.72 0-5.11 2.26-5.1 4.18 0 2.51 1.81 3.76 6 5.48 5 2 7.51 4.5 7.54 8.8 0 3.81-2.63 7.41-7.59 8.26v5z" fill="#6246ea"/><path d="M222.28 171.11c-.33.48-.73 1.19-1.25 1.41-.76.32-1.82-.26-2.45-.64a21.66 21.66 0 01-3-2.18c-.87-.74-1.68-1.55-2.62-2.2a5.58 5.58 0 00-3.17-1.13c-2.42 0-3.7 2.4-3.93 4.53s.94 4.49 3 4.9c1.11.22 2.26-.16 3.39-.06 3.81.32 6.18 5.73 9.94 5a6.91 6.91 0 003.35-2.22l3.87-3.87c2.27-2.27 4.67-4.79 5.06-8 .29-2.43-1.43-7.83-4.41-6.25-1.42.75-2.87 3.91-3.83 5.22-1.27 1.77-2.53 3.55-3.83 5.29-.05.09-.09.14-.12.2z" fill="#f9c6d6"/><path fill="#6246ea" d="M198.35 166.97l17.93 4.76 6.27 22.93-17.4-2.84-6.8-24.85z"/><path d="M234.54 228.68l-.56-2.43a1.79 1.79 0 00-1.74-1.87 5.63 5.63 0 01-3.43-1.38 4.3 4.3 0 01-.92-2.79c0-1.51.45-3.2 1.78-3.92l8.84 6.19 2 7.25z" transform="translate(-17.93 -35.06)" fill="url(#d)"/><path d="M223.62 165.59a2.94 2.94 0 00-.15.94 2.49 2.49 0 00.54 1.22 24.32 24.32 0 012.87 5.69 7.41 7.41 0 00.8 1.82 2.1 2.1 0 001.65 1 2 2 0 001.76-1.46 6.09 6.09 0 00.17-2.41c-.17-2.35-.63-5-.18-7.35.49-2.62 1.37-5.21 1.94-7.82-.82-.36-1.7.29-2.35.9-2.1 1.95-4.2 3.9-6.14 6a4 4 0 00-.91 1.47z" fill="#6246ea"/><path d="M244.82 266.44c-23.95-.35-43.25-8.53-43.11-18.31 0-1.09-.81-7.23-.34-8.21 3.78-8.2 22.66-9.16 44-8.87 20.94.31 38.53 0 42.45 8.1.58 1.15.67 9 .65 10.21-.16 9.78-19.7 17.42-43.65 17.08z" fill="#e8a825"/><ellipse cx="262.7" cy="275.65" rx="17.69" ry="43.36" transform="rotate(-89.18 235.954 267.214)" fill="#f8c244"/><ellipse cx="262.7" cy="275.65" rx="15.07" ry="36.94" transform="rotate(-89.18 235.954 267.214)" fill="#e8a825"/><path d="M221.47 238.82l5.91.09a4.82 4.82 0 012.64-3.61l3.92.61a4.52 4.52 0 00-2.57 3.42c0 1.7 2.37 2.89 5.7 2.92a8.87 8.87 0 007-2.6 12.49 12.49 0 0110.19-3.79c4.86 0 8.55 1.53 9.4 3.74l5.91.09v1.48l-5.69-.09a4.26 4.26 0 01-2.1 3.09l-3.85-.65a4 4 0 002-3c0-1.81-2.65-2.57-5-2.6a8.28 8.28 0 00-6.73 2.87c-2.49 2.42-5.56 3.62-10.84 3.62-4.65 0-9-1.45-9.92-3.93l-6.09-.09z" fill="#f8c244"/><path d="M264.99 258.11c-23.95-.34-43.25-8.53-43.11-18.31 0-1.08-.81-7.23-.34-8.2 3.78-8.21 22.67-9.17 44-8.88 20.95.31 38.53 0 42.46 8.1.57 1.16.66 9 .65 10.21-.17 9.78-19.71 17.42-43.66 17.08z" fill="#e8a825"/><ellipse cx="282.87" cy="267.32" rx="17.69" ry="43.36" transform="rotate(-89.18 256.125 258.886)" fill="#f8c244"/><ellipse cx="282.87" cy="267.32" rx="15.07" ry="36.94" transform="rotate(-89.18 256.125 258.886)" fill="#e8a825"/><path d="M241.64 230.49l5.91.09a4.82 4.82 0 012.64-3.61l3.92.61a4.51 4.51 0 00-2.56 3.42c0 1.7 2.36 2.89 5.69 2.93a8.91 8.91 0 007-2.6 12.47 12.47 0 0110.19-3.8c4.87 0 8.55 1.54 9.4 3.74l5.91.09v1.48l-5.69-.09a4.23 4.23 0 01-2.1 3.09l-3.85-.65a4 4 0 002-3c0-1.8-2.66-2.56-5-2.6a8.25 8.25 0 00-6.72 2.87c-2.5 2.43-5.57 3.62-10.85 3.62-4.64 0-9-1.45-9.92-3.92l-6.09-.09z" fill="#f8c244"/><path d="M249.22 236.26c-23.95-.32-43.25-8.53-43.15-18.32 0-1.08-.81-7.23-.34-8.2 3.78-8.21 22.66-9.17 44-8.88 20.94.31 38.53 0 42.45 8.1.58 1.16.67 9 .65 10.21-.12 9.77-19.66 17.44-43.61 17.09z" fill="#e8a825"/><ellipse cx="267.1" cy="245.48" rx="17.69" ry="43.36" transform="rotate(-89.18 240.346 237.04)" fill="#f8c244"/><ellipse cx="267.1" cy="245.48" rx="15.07" ry="36.94" transform="rotate(-89.18 240.346 237.04)" fill="#e8a825"/><path d="M225.87 208.65l5.91.09a4.82 4.82 0 012.64-3.62l3.92.62a4.52 4.52 0 00-2.57 3.41c0 1.7 2.37 2.89 5.7 2.93a8.91 8.91 0 007-2.6 12.5 12.5 0 0110.19-3.8c4.86 0 8.55 1.54 9.4 3.74l5.91.09V211l-5.69-.09a4.26 4.26 0 01-2.1 3.09l-3.85-.65a4 4 0 002-3c0-1.81-2.65-2.57-5-2.61a8.26 8.26 0 00-6.73 2.88c-2.49 2.42-5.56 3.61-10.84 3.61-4.65 0-9-1.44-9.92-3.92l-6.09-.09z" fill="#f8c244"/><path d="M216.22 241.29c.38 1.22.72 2.67 0 3.71a3.07 3.07 0 01-1.35 1 3.64 3.64 0 01-3.84-.41 5.13 5.13 0 01-1.17-2.21 54 54 0 01-2.07-9.23 1.71 1.71 0 010-.87 1.51 1.51 0 01.73-.68c1.65-.89 4.21-1.6 5.13.37 1.2 2.51 1.75 5.63 2.57 8.32z" fill="#f9c6d6"/><path d="M211.27 242.71a2.15 2.15 0 00-1 .11 2 2 0 00-.58.5l-3.62 4.06c-.68.78-1.41 1.86-.93 2.78a2.07 2.07 0 001.53.93 9 9 0 005-1c1.1-.48 2.17-1 3.23-1.58a5.12 5.12 0 002-1.61c.81-1.25 1.06-4.26-.39-5.2-.73-.47-1.37-.13-2.06.19a6.8 6.8 0 01-3.18.82z" fill="#6246ea"/><path d="M196.52 255.08a1.42 1.42 0 00.07.68 1.32 1.32 0 00.52.53 4.31 4.31 0 002.29.78 2.65 2.65 0 002.15-1 4.65 4.65 0 00.67-2 24 24 0 00.44-4.69.89.89 0 00-.19-.62.86.86 0 00-.41-.16c-1.29-.27-3.83-1-4.48.64a18.66 18.66 0 00-1.06 5.84z" fill="#f9c6d6"/><path d="M191.07 254.94a11.64 11.64 0 00-3.22.63 4.06 4.06 0 00-2.36 2.18 2.32 2.32 0 00-.07 1.58 3.42 3.42 0 001.75 1.68 22.07 22.07 0 0011.94 2.61 4.06 4.06 0 002.89-1.07 4.64 4.64 0 00.77-2.94l.14-4.92c-.92-.14-1.78.46-2.66.77-1.52.52-2.12-.74-3.38-1-1.6-.44-4.09.3-5.8.48z" fill="#6246ea"/><path d="M229.2 277.77a2.15 2.15 0 00-1 .11 2 2 0 00-.58.5l-3.62 4.06c-.68.78-1.41 1.86-.93 2.78a2.07 2.07 0 001.53.93 9 9 0 005-1c1.1-.48 2.17-1 3.23-1.58a5.12 5.12 0 002-1.61c.81-1.25 1.06-4.26-.39-5.2-.73-.47-1.37-.13-2.06.19a6.8 6.8 0 01-3.18.82z" transform="translate(-17.93 -35.06)" fill="url(#e)"/><path d="M209 290a11.64 11.64 0 00-3.22.63 4.06 4.06 0 00-2.36 2.18 2.32 2.32 0 00-.07 1.58 3.42 3.42 0 001.75 1.68 22.07 22.07 0 0011.94 2.61 4.06 4.06 0 002.89-1.07 4.64 4.64 0 00.77-2.94l.14-4.92c-.92-.14-1.78.46-2.66.77-1.52.52-2.12-.74-3.38-1-1.6-.44-4.09.3-5.8.48z" transform="translate(-17.93 -35.06)" fill="url(#f)"/><path d="M204.23 200.68a5.74 5.74 0 00-2.8 1.44 5.81 5.81 0 00-1 3.92 81 81 0 005.44 29 2.66 2.66 0 001.22 1.64 2.56 2.56 0 001.66-.07 64.46 64.46 0 006.33-2.13l-2.81-18.86a2.69 2.69 0 01.09-1.59 2.53 2.53 0 01.85-.87 73.17 73.17 0 0110.1-6.3c4.4-2.28 7.21-4.93 8-10a5.7 5.7 0 00-.79-4.12 3.62 3.62 0 00-3.73-1.55 5.9 5.9 0 00-1.48.7c-3.4 2.05-17.55 7.74-21.08 8.79z" fill="#282328"/><path d="M206.24 213.84a20.47 20.47 0 00-3.11 5.65 114.18 114.18 0 00-7.81 31.09 40.48 40.48 0 0010 0 96.32 96.32 0 013.42-22.33 14.75 14.75 0 011.8-4.42c1.48-2.16 3.9-3.42 6.22-4.59a89.41 89.41 0 0116.67-6.3c2.43-.68 4.88-1.3 7.27-2.12a17.52 17.52 0 005.66-2.92c3-2.51 5.3-8 1.29-10.66-1.79-1.2-4.05-1.43-6.2-1.64l-6.67-.63a5 5 0 00-2 .08 5.17 5.17 0 00-1.53.91c-5 3.83-10 7.24-15.26 10.71-3.23 2.14-7.17 4.13-9.75 7.17z" fill="#473f47"/><path d="M234.62 200.31a41.19 41.19 0 01-5.07-2.4c-6.19-3.47-1.12-5.17 1-9.35 1.47-3 .87-6.51.11-9.73-1.35-5.65-3.15-11.49-1.85-17.15a6.64 6.64 0 011.05-2.56 7.75 7.75 0 011.3-1.26 14.17 14.17 0 014.43-2.63c3.13-1 6.6-.28 9.53 1.22 12 6.09 11.9 25.55 10.77 37-.26 2.64-.66 5.41-2.27 7.52-2.36 3.1-4.56 2-7.56 1.46-3.99-.68-7.59-.62-11.44-2.12z" fill="#6246ea"/><path d="M273.21 214.83c0 2-.39 3.89-.48 5.85-.11 2.17.12 4.36-.06 6.52a17.61 17.61 0 01-3.93 9.69 2 2 0 01-.78.65 2 2 0 01-1.32-.11l-5.77-1.77a11.38 11.38 0 01-2.19-.84 5.69 5.69 0 01-2.58-3.12 2.13 2.13 0 01-.13-1.06c.16-.78 1-1.23 1.62-1.66 2.49-1.62 4.05-4.31 5.52-6.89a55.63 55.63 0 003.69-7.26 14.94 14.94 0 011.59-3.41c.68-.95 2.39-2.33 3.58-1.54s1.25 3.72 1.24 4.95z" transform="translate(-17.93 -35.06)" fill="url(#g)"/><path d="M241.58 163.33a5.82 5.82 0 01-4.15 2.18 1.08 1.08 0 01-.73-.17 1.26 1.26 0 01-.36-.87c-.07-.65-.17-1.49-.24-2.32s-.2-1.85-.29-2.56a10.21 10.21 0 00-2.07-5.19 5.62 5.62 0 00-.81-.89c-2-1.8 6.13-1.09 7.2-3.54 1.24 1.59 1.13 3.84 1.67 5.81a28.12 28.12 0 01.91 2.92 5.87 5.87 0 01-1.13 4.63z" fill="#f9c6d6"/><path d="M254.14 197.59l-.11-.38c-.11-.93-.2-1.85-.29-2.56a10.21 10.21 0 00-2.07-5.19v-.2s6.44-4.23 7.13.72-4.66 7.61-4.66 7.61z" transform="translate(-17.93 -35.06)" fill="url(#h)"/><path d="M229.45 151.46a5 5 0 00.55 3 3.89 3.89 0 00.95 1c2.56 1.93 6.41 1.54 9-.46a11.49 11.49 0 004-8.56 6.6 6.6 0 00-1.34-4.75 5.25 5.25 0 00-4.84-1.35 12.41 12.41 0 00-6.14 3.49c-1.65 1.81-2.06 5.3-2.18 7.63zM252.64 168.36c.05.36.09.72.13 1.08.58 5.35.06 10.61-.14 15.94-.13 3.67-.4 8.49-3.53 11-8.37 6.71-27-7.32-27.82-7.93-1.25-.93-3-1-4.5-1.17a6.8 6.8 0 01-4.58-2.19 4.55 4.55 0 01-.73-4.86c1.23-2.42 4.69-2.79 7.18-1.71s4.36 3.18 6.52 4.82a40.57 40.57 0 005.37 3.25c2.18 1.16 9.86 2.83 12.33 2.86 2.63 0 1.6-15.44 1.86-20.37a8.06 8.06 0 01.91-3.66 3.7 3.7 0 013-1.95 3.78 3.78 0 013.12 2.13 8.27 8.27 0 01.88 2.76z" fill="#f9c6d6"/><path d="M239.14 148.77c0 .16-.05.32-.07.48l-.27 2.89-.57 5.89 9.91 1.39c.43-3.15 1.34-6.23 1.73-9.39s.23-6.53-1.35-9.29c-1.28-2.25-4.34-3.6-6.62-4.64a10.11 10.11 0 00-1.78-.61 11.71 11.71 0 00-7.12.35 4.8 4.8 0 00-1.5.83 9.28 9.28 0 00-.78 1.15 19.17 19.17 0 00-2.24 3.71 5.36 5.36 0 00-.57 2 .36.36 0 000 .23.47.47 0 00.19.15l2.66 1.43a.42.42 0 00.19.06.4.4 0 00.26-.14l1.86-1.62-.51 1.13a.4.4 0 000 .35.43.43 0 00.17.13l2.66 1.31a.32.32 0 00.16 0c.09 0 .15-.07.21-.13l1.29-1.36-.38 1.68a.42.42 0 000 .25.35.35 0 00.19.15l1.42.73c.05 0 .1.05.14 0a.21.21 0 00.11-.07l.95-1.07a14.05 14.05 0 01-.34 2.03z" fill="#473f47"/><path d="M254.18 168.08c1.19 3 .11 5.84.05 8.79a3.65 3.65 0 01-.1.88 2.58 2.58 0 01-.65 1.07 5.94 5.94 0 01-4.43 1.58 16.67 16.67 0 01-4.71-1.06 2 2 0 01-1.23-.79 1.87 1.87 0 01-.16-.91c-.08-4.51-1.24-11.79 3.15-14.79 3.48-2.39 6.97 2.29 8.08 5.23z" fill="#6246ea"/><path d="M248.67 202.86a15.93 15.93 0 00-3.88 2.95 1.72 1.72 0 00-.49.76 1.79 1.79 0 000 .69 11.84 11.84 0 001.15 3.21 2.47 2.47 0 00.44.63c1.69 1.54 2.08-1.26 2.2-2.17q.43-3.03.58-6.07z" transform="translate(-17.93 -35.06)" fill="url(#i)"/><circle cx="230.28" cy="147.52" r="1.97" fill="none" stroke="#473f47" stroke-miterlimit="10" stroke-width=".32"/><circle cx="234.15" cy="149.22" r="1.97" fill="none" stroke="#473f47" stroke-miterlimit="10" stroke-width=".32"/><path d="M209.28 167.8l3.08-6.39s1.26.06 1.5.78l-3.4 6.28s-.2.47-1.18-.67z" fill="#473f47"/></svg>